<svg width="32" height="33" viewBox="0 0 32 33" fill="none" xmlns="http://www.w3.org/2000/svg">
<g id="CloudSun">
<path id="Vector" d="M19.5001 9.49991C18.6474 9.50264 17.7986 9.61609 16.9751 9.83741C16.6457 9.31058 16.2509 8.82758 15.8001 8.39991L16.9751 6.69991C17.0516 6.59358 17.1062 6.47308 17.1357 6.34544C17.1653 6.21779 17.1691 6.08555 17.147 5.95642C17.1249 5.82728 17.0773 5.70384 17.007 5.59327C16.9367 5.48271 16.8451 5.38723 16.7376 5.31241C16.6303 5.23555 16.5088 5.1807 16.3801 5.15103C16.2515 5.12136 16.1183 5.11745 15.9881 5.13953C15.858 5.16161 15.7335 5.20924 15.6218 5.27967C15.5102 5.35011 15.4136 5.44196 15.3376 5.54991L14.1501 7.24991C13.1111 6.71858 11.9539 6.46048 10.7876 6.49991L10.4251 4.46241C10.3787 4.20051 10.2301 3.96777 10.0121 3.8154C9.79411 3.66303 9.5245 3.6035 9.26259 3.64991C9.00069 3.69633 8.76796 3.84488 8.61558 4.06289C8.46321 4.2809 8.40368 4.55051 8.45009 4.81241L8.81259 6.84991C7.70192 7.21244 6.70033 7.84865 5.90009 8.69991L4.20009 7.51241C3.98269 7.36238 3.71475 7.30446 3.45479 7.3513C3.19483 7.39814 2.96396 7.54594 2.81259 7.76241C2.73606 7.86874 2.68145 7.98924 2.65194 8.11689C2.62243 8.24453 2.61862 8.37677 2.64072 8.50591C2.66283 8.63504 2.7104 8.75849 2.78069 8.86905C2.85097 8.97962 2.94255 9.07509 3.05009 9.14991L4.75009 10.3374C4.21721 11.3803 3.95908 12.5419 4.00009 13.7124L1.96259 14.0749C1.7125 14.1146 1.48675 14.2476 1.33092 14.4472C1.1751 14.6468 1.10079 14.8981 1.123 15.1503C1.14521 15.4025 1.26228 15.637 1.45059 15.8062C1.6389 15.9755 1.88442 16.0671 2.13759 16.0624H2.31259L4.35009 15.6999C4.52674 16.2467 4.77471 16.7679 5.08759 17.2499C4.1294 18.1362 3.46084 19.291 3.16927 20.5632C2.87771 21.8355 2.97669 23.1661 3.45329 24.3813C3.92989 25.5964 4.76194 26.6395 5.84072 27.3743C6.9195 28.1091 8.19484 28.5014 9.50009 28.4999H19.5001C22.0196 28.4999 24.436 27.499 26.2176 25.7174C27.9992 23.9358 29.0001 21.5195 29.0001 18.9999C29.0001 16.4804 27.9992 14.064 26.2176 12.2824C24.436 10.5008 22.0196 9.49991 19.5001 9.49991ZM6.07509 14.3874V14.3374C5.84806 13.0492 6.14017 11.7234 6.88759 10.6499V10.6249H6.90009C7.65633 9.54804 8.80569 8.81172 10.1001 8.57491H10.1626C11.4314 8.35289 12.7367 8.63549 13.8001 9.36241L13.8626 9.39991L13.9126 9.43741C14.3657 9.7532 14.7593 10.1468 15.0751 10.5999C13.0385 11.677 11.4586 13.4522 10.6251 15.5999C10.2536 15.5351 9.87724 15.5016 9.50009 15.4999C8.54572 15.5012 7.60306 15.7102 6.73759 16.1124C6.4115 15.5836 6.18684 14.9986 6.07509 14.3874Z" fill="#73877B"/>
</g>
</svg>
