<svg width="33" height="33" viewBox="0 0 33 33" fill="none" xmlns="http://www.w3.org/2000/svg">
<g id="CloudSun">
<path id="Vector" d="M20.0001 9.49991C19.1474 9.50264 18.2986 9.61609 17.4751 9.83741C17.1457 9.31058 16.7509 8.82758 16.3001 8.39991L17.4751 6.69991C17.5516 6.59358 17.6062 6.47308 17.6357 6.34544C17.6653 6.21779 17.6691 6.08555 17.647 5.95642C17.6249 5.82728 17.5773 5.70384 17.507 5.59327C17.4367 5.48271 17.3451 5.38723 17.2376 5.31241C17.1303 5.23555 17.0088 5.1807 16.8801 5.15103C16.7515 5.12136 16.6183 5.11745 16.4881 5.13953C16.358 5.16161 16.2335 5.20924 16.1218 5.27967C16.0102 5.35011 15.9136 5.44196 15.8376 5.54991L14.6501 7.24991C13.6111 6.71858 12.4539 6.46048 11.2876 6.49991L10.9251 4.46241C10.8787 4.20051 10.7301 3.96777 10.5121 3.8154C10.2941 3.66303 10.0245 3.6035 9.76259 3.64991C9.50069 3.69633 9.26796 3.84488 9.11558 4.06289C8.96321 4.2809 8.90368 4.55051 8.95009 4.81241L9.31259 6.84991C8.20192 7.21244 7.20033 7.84865 6.40009 8.69991L4.70009 7.51241C4.48269 7.36238 4.21475 7.30446 3.95479 7.3513C3.69483 7.39814 3.46396 7.54594 3.31259 7.76241C3.23606 7.86874 3.18145 7.98924 3.15194 8.11689C3.12243 8.24453 3.11862 8.37677 3.14072 8.50591C3.16283 8.63504 3.2104 8.75849 3.28069 8.86905C3.35097 8.97962 3.44255 9.07509 3.55009 9.14991L5.25009 10.3374C4.71721 11.3803 4.45908 12.5419 4.50009 13.7124L2.46259 14.0749C2.2125 14.1146 1.98675 14.2476 1.83092 14.4472C1.6751 14.6468 1.60079 14.8981 1.623 15.1503C1.64521 15.4025 1.76228 15.637 1.95059 15.8062C2.1389 15.9755 2.38442 16.0671 2.63759 16.0624H2.81259L4.85009 15.6999C5.02674 16.2467 5.27471 16.7679 5.58759 17.2499C4.6294 18.1362 3.96084 19.291 3.66927 20.5632C3.37771 21.8355 3.47669 23.1661 3.95329 24.3813C4.42989 25.5964 5.26194 26.6395 6.34072 27.3743C7.4195 28.1091 8.69484 28.5014 10.0001 28.4999H20.0001C22.5196 28.4999 24.936 27.499 26.7176 25.7174C28.4992 23.9358 29.5001 21.5195 29.5001 18.9999C29.5001 16.4804 28.4992 14.064 26.7176 12.2824C24.936 10.5008 22.5196 9.49991 20.0001 9.49991ZM6.57509 14.3874V14.3374C6.34806 13.0492 6.64017 11.7234 7.38759 10.6499V10.6249H7.40009C8.15633 9.54804 9.30569 8.81172 10.6001 8.57491H10.6626C11.9314 8.35289 13.2367 8.63549 14.3001 9.36241L14.3626 9.39991L14.4126 9.43741C14.8657 9.7532 15.2593 10.1468 15.5751 10.5999C13.5385 11.677 11.9586 13.4522 11.1251 15.5999C10.7536 15.5351 10.3772 15.5016 10.0001 15.4999C9.04572 15.5012 8.10306 15.7102 7.23759 16.1124C6.9115 15.5836 6.68684 14.9986 6.57509 14.3874Z" fill="#1F4037"/>
</g>
</svg>
